<svg xmlns="http://www.w3.org/2000/svg" viewBox="0 0 288.19 75.53" class="h-[35px]"><path d="M26.17 15.11h0l-13.08 7.55v15.1h0v15.1l13.08-7.54v-15.1-.01h0l13.08-7.54V7.57l-13.08 7.54zm26.14 0v15.1l13.08-7.54V7.57l-13.08 7.54z" fill="#8857ff" opacity="1"></path><path d="M52.32 15.12L39.24 7.56l-.01 15.1 13.08 7.55.01-15.09z" fill="#132ad1" opacity="1"></path><g fill="#36ffe2"><path d="M52.3 15.12l13.09-7.55L52.31.01 39.23 7.56l13.07 7.56z"></path><path d="M39.23 7.56L26.16 0 13.08 7.55.01 15.11l13.07 7.56 13.08-7.56h-.01l13.08-7.55z"></path></g><path d="M.01 15.11L0 60.41l26.15 15.11.01-15.1-13.06-7.55-.02-30.2L.01 15.11z" fill="#132ad1" opacity="1"></path><path d="M26.17 60.41v.01 15.1l13.08-7.54v-.01-15.1l-13.08 7.54z" fill="#8857ff" opacity="1"></path><path d="M39.24 52.87l-13.07-7.56-13.08 7.55 13.07 7.55h0l13.08-7.54h0 0z" fill="#36ffe2"></path><path d="M52.31 60.42v15.1l13.08-7.54v-15.1l-13.08 7.54z" fill="#8857ff" opacity="1"></path><path d="M52.32 60.43l-13.08-7.56-.01 15.1 13.08 7.56.01-15.1z" fill="#132ad1" opacity="1"></path><path d="M52.3 60.43l13.09-7.55-13.08-7.56-13.08 7.55 13.07 7.56z" fill="#36ffe2"></path><path d="M94.24 31a10.52 10.52 0 0 0 7.12-2.4 11.49 11.49 0 0 0 3.69-5.95l.13-.52h-4.78l-.09.28a7 7 0 0 1-2.24 3.25A6 6 0 0 1 94.24 27a6.15 6.15 0 0 1-4.83-2.08 7.7 7.7 0 0 1-1.91-5.42 7.73 7.73 0 0 1 1.92-5.5 6.11 6.11 0 0 1 4.82-2.08 6 6 0 0 1 3.83 1.29 7.1 7.1 0 0 1 2.24 3.25l.09.29h4.78l-.13-.52a11.45 11.45 0 0 0-3.69-5.95 10.47 10.47 0 0 0-7.12-2.4 11.19 11.19 0 0 0-8.46 3.34 11.57 11.57 0 0 0-3.21 8.25 11.5 11.5 0 0 0 3.21 8.2A11.2 11.2 0 0 0 94.24 31zm27.3 0a11.31 11.31 0 0 0 8.46-3.31 11.5 11.5 0 0 0 3.21-8.2 11.57 11.57 0 0 0-3.21-8.25 11.3 11.3 0 0 0-8.49-3.34 11.17 11.17 0 0 0-8.45 3.34 11.57 11.57 0 0 0-3.22 8.25 11.51 11.51 0 0 0 3.22 8.2 11.17 11.17 0 0 0 8.48 3.31zm-4.82-17a6.13 6.13 0 0 1 4.82-2.08A6.25 6.25 0 0 1 126.4 14a7.79 7.79 0 0 1 1.88 5.46 7.75 7.75 0 0 1-1.88 5.42 6.24 6.24 0 0 1-4.86 2.12 6.13 6.13 0 0 1-4.82-2.08 7.7 7.7 0 0 1-1.92-5.42 7.78 7.78 0 0 1 1.92-5.5zm41.6 13.2a10.9 10.9 0 0 0 0-15.47c-2.11-2.16-5.29-3.26-9.44-3.26h-9.22v22h9.22c4.12-.01 7.33-1.11 9.44-3.27zM144.4 12.44h4.48c2.62 0 4.59.68 5.86 2a7.11 7.11 0 0 1 1.95 5 7.05 7.05 0 0 1-1.95 5c-1.27 1.34-3.24 2-5.86 2h-4.48zm23.56 14.05h18.05v3.97h-18.05zm0-9.22h18.05v3.97h-18.05zm0-8.8h18.05v3.97h-18.05z" class=" dark:fill-white fill-[#0b163a]"></path><path d="M209.56 26.49H197.4V8.47h-4.74v21.99h16.9v-3.97zm50.64-7.37a4.81 4.81 0 0 0 1.64-1.78 5.32 5.32 0 0 0 .61-2.37 5.75 5.75 0 0 0-2.21-4.72A9.7 9.7 0 0 0 254 8.47h-10.4v22h10.79a11.49 11.49 0 0 0 6.66-1.64h0a5.66 5.66 0 0 0 2.36-4.83 5 5 0 0 0-1-3.08 6.5 6.5 0 0 0-2.21-1.8zm-11.86-6.68H254a4 4 0 0 1 2.73.72 2.41 2.41 0 0 1 .76 1.77 2.37 2.37 0 0 1-.75 1.73 4 4 0 0 1-2.74.73h-5.66zm9.27 13.43a5.94 5.94 0 0 1-3 .62h-6.24v-5.33h6.24a5.12 5.12 0 0 1 3 .73 2.34 2.34 0 0 1 .9 2 2.19 2.19 0 0 1-.9 1.98zm29.65-5.1a6.38 6.38 0 0 0-2.33-1.89 14.59 14.59 0 0 0-4.72-1.34 22.47 22.47 0 0 1-4.29-.94 3.52 3.52 0 0 1-1.37-.75 1.35 1.35 0 0 1-.44-1.07 2.32 2.32 0 0 1 1.12-2 5.52 5.52 0 0 1 3.17-.85 4.9 4.9 0 0 1 3.1 1 2.79 2.79 0 0 1 1.19 2.27v.42h4.92v-.42a5.82 5.82 0 0 0-1.49-4.2 9.33 9.33 0 0 0-3.42-2.29 15.67 15.67 0 0 0-2.17-.55A12.21 12.21 0 0 0 278.4 8a13.84 13.84 0 0 0-4 .63 8.06 8.06 0 0 0-3.53 2.08 5.44 5.44 0 0 0-1.24 1.77 5.33 5.33 0 0 0-.5 2.32 5 5 0 0 0 1 3.19 6.19 6.19 0 0 0 2.33 1.93 15.4 15.4 0 0 0 4.72 1.38 20.36 20.36 0 0 1 4.24 1 4.13 4.13 0 0 1 1.42.79 1.43 1.43 0 0 1 .44 1.11 2.19 2.19 0 0 1-1.28 2.07 8.15 8.15 0 0 1-3.57.72 6.36 6.36 0 0 1-3.53-.93 2.76 2.76 0 0 1-1.37-2.48v-.42h-4.93v.42a6.73 6.73 0 0 0 .45 2.54 6.83 6.83 0 0 0 1.27 2 8.35 8.35 0 0 0 3.68 2.17 14.83 14.83 0 0 0 4.37.67 17 17 0 0 0 4.36-.59 8.33 8.33 0 0 0 3.69-2.09 5.34 5.34 0 0 0 1.28-1.86 6.17 6.17 0 0 0 .46-2.46 5.12 5.12 0 0 0-.9-3.19z" fill="#8857ff" opacity="1"></path><path d="M96.45 44.9l-.12-.24H92l-.11.24q-7.8 16.17-10.37 21.55l-.28.59h5.09l2.15-4.71h11.16l2.12 4.67h5.38l-.29-.59q-6.93-14.34-10.4-21.51zm-6.19 13.6l3.84-8.41 3.81 8.41zm33.52-10.32a6.06 6.06 0 0 1 3.9 1.31 7.13 7.13 0 0 1 2.32 3.32l.09.28h4.85l-.13-.52a11.62 11.62 0 0 0-3.75-6 10.7 10.7 0 0 0-7.25-2.44 11.36 11.36 0 0 0-8.6 3.4 12.33 12.33 0 0 0 0 16.75 11.39 11.39 0 0 0 8.6 3.4 10.7 10.7 0 0 0 7.19-2.49 11.69 11.69 0 0 0 3.75-6.06l.13-.52h-4.85l-.09.29a7.1 7.1 0 0 1-2.28 3.31 6.11 6.11 0 0 1-3.91 1.31 6.26 6.26 0 0 1-4.92-2.12 7.83 7.83 0 0 1-2-5.53 7.86 7.86 0 0 1 2-5.57 6.25 6.25 0 0 1 4.95-2.12zm31.08-3.28l-.12-.24h-4.3l-.11.24q-7.8 16.17-10.33 21.55l-.28.59h5.09l2.15-4.71h11.13l2.09 4.67h5.37l-.29-.59q-6.93-14.34-10.4-21.51zm-6.19 13.6l3.84-8.41 3.81 8.41zm33.25-13.84h-9.38V67h9.38c4.22 0 7.46-1.11 9.61-3.31a11.12 11.12 0 0 0 0-15.75c-2.15-2.16-5.39-3.28-9.61-3.28zm6 16.3c-1.29 1.37-3.3 2.06-6 2.06h-4.58V48.69h4.58c2.67 0 4.68.69 6 2.05a7.23 7.23 0 0 1 2 5.13 7.15 7.15 0 0 1-2.03 5.13zm15.24 6.09h18.37v-4.03h-13.56v-5.37h12.16v-4.02h-12.16v-4.94h13.56v-4.03h-18.37v22.39zm40.66-5.84q-5-11.85-6.89-16.29l-.11-.26h-6.69V67h4.8v-8.68l-.17-7.32q5.07 11.42 7 15.76l.11.24h3.89l.11-.25q4.22-9.84 6.74-15.68l-.17 7.21V67h4.85V44.66h-6.66zM276 54.26q-4.23-6.87-5.78-9.4l-.12-.2h-5.84l.42.65 8.86 13.34V67h4.8v-8.41q6.6-9.95 8.82-13.28l.43-.65H282z" class=" dark:fill-white fill-[#0b163a]"></path><path d="M233.24 30.46h5.29l-1.32-2.75-9.21-19-.11-.24h-4.24l-.11.24q-7.65 15.87-10.18 21.16l-.28.59h5l7.59-16.63 7.41 16.39z" fill="#8857ff" opacity="1"></path></svg>