<?xml version="1.0" standalone="no"?>
<!DOCTYPE svg PUBLIC "-//W3C//DTD SVG 20010904//EN"
 "http://www.w3.org/TR/2001/REC-SVG-20010904/DTD/svg10.dtd">
<svg version="1.0" xmlns="http://www.w3.org/2000/svg"
 width="200.000000pt" height="200.000000pt" viewBox="0 0 200.000000 200.000000"
 preserveAspectRatio="xMidYMid meet">

<g transform="translate(0.000000,200.000000) scale(0.100000,-0.100000)"
fill="#000000" stroke="none">
<path d="M318 1437 c3 -35 -1 -49 -22 -74 -47 -56 -24 -89 26 -35 33 35 48 65
48 96 0 39 -10 56 -34 56 -19 0 -21 -5 -18 -43z"/>
<path d="M410 1438 c0 -60 -35 -125 -84 -157 -35 -22 -41 -30 -36 -50 8 -35
21 -35 67 -2 75 54 113 124 113 207 0 42 -1 44 -30 44 -29 0 -30 -2 -30 -42z"/>
<path d="M513 1421 c-2 -105 -72 -215 -164 -256 -39 -18 -43 -28 -31 -73 l7
-23 61 31 c119 59 195 175 202 308 l4 72 -39 0 -38 0 -2 -59z"/>
<path d="M638 1396 c-4 -69 -10 -96 -37 -151 -41 -83 -120 -164 -197 -201 -33
-15 -61 -29 -62 -30 -2 -2 -1 -21 3 -43 8 -50 16 -51 98 -10 162 82 259 216
288 400 6 39 8 81 5 95 -6 21 -12 24 -50 24 l-43 0 -5 -84z"/>
<path d="M800 1412 c0 -204 -128 -405 -319 -500 -46 -23 -90 -42 -97 -42 -15
0 -18 -18 -8 -44 5 -13 22 -16 81 -16 73 0 78 2 144 45 189 126 308 341 309
558 l0 67 -55 0 -55 0 0 -68z"/>
<path d="M990 1413 c-1 -191 -79 -371 -227 -520 l-82 -83 113 0 c130 0 127 -2
211 128 86 135 132 275 142 440 l6 102 -81 0 -82 0 0 -67z"/>
<path d="M1237 1378 c-13 -202 -75 -376 -194 -545 l-15 -23 84 0 85 0 27 50
c18 33 31 47 41 43 19 -7 19 -12 -5 -48 -11 -16 -20 -33 -20 -37 0 -5 40 -8
89 -8 l88 0 27 60 c78 173 126 387 126 563 l0 47 -80 0 c-64 0 -80 -3 -80 -15
0 -8 -7 -15 -15 -15 -8 0 -15 7 -15 15 0 12 -14 15 -68 15 l-69 0 -6 -102z
m173 -25 c0 -34 -12 -63 -26 -63 -14 0 -19 36 -8 64 8 22 34 20 34 -1z m-20
-150 c0 -5 -5 -25 -10 -45 -8 -27 -15 -36 -26 -31 -11 4 -13 14 -8 37 8 40 12
46 30 46 8 0 14 -3 14 -7z m-50 -162 c0 -18 -22 -71 -30 -71 -17 0 -20 18 -9
49 10 27 39 45 39 22z"/>
<path d="M1627 1348 c-4 -100 -13 -162 -35 -249 -25 -97 -42 -145 -99 -276 -4
-10 24 -13 121 -13 l126 0 0 335 0 335 -54 0 -53 0 -6 -132z"/>
<path d="M856 753 c31 -126 53 -145 74 -66 l13 48 14 -47 c19 -65 39 -62 58
10 9 31 18 63 20 70 3 6 -2 12 -9 12 -9 0 -19 -21 -27 -52 l-13 -53 -14 53
c-8 29 -21 52 -28 52 -12 0 -33 -56 -34 -90 -1 -25 -16 9 -24 53 -4 23 -12 37
-22 37 -11 0 -13 -7 -8 -27z"/>
<path d="M1118 715 c-29 -63 -31 -100 -4 -62 17 22 84 24 92 2 4 -8 12 -15 19
-15 10 0 5 20 -17 70 -17 39 -37 70 -45 70 -8 0 -28 -29 -45 -65z m50 -23
c-27 -5 -30 1 -17 34 l11 29 13 -30 c12 -27 12 -30 -7 -33z"/>
<path d="M1280 772 c0 -4 9 -36 21 -70 15 -46 26 -62 39 -62 13 0 24 16 39 62
25 73 25 78 7 78 -7 0 -19 -20 -26 -45 -7 -25 -16 -45 -20 -45 -4 0 -13 20
-20 45 -7 25 -19 45 -26 45 -8 0 -14 -4 -14 -8z"/>
<path d="M1460 710 l0 -70 55 0 c30 0 55 5 55 10 0 6 -18 10 -40 10 -29 0 -40
4 -40 15 0 10 10 15 30 15 20 0 30 5 30 15 0 10 -10 15 -30 15 -23 0 -30 4
-30 20 0 16 7 20 35 20 19 0 35 5 35 10 0 6 -22 10 -50 10 l-50 0 0 -70z"/>
<path d="M1646 764 c-26 -26 -18 -44 29 -64 25 -11 45 -23 45 -29 0 -17 -33
-21 -56 -6 -29 19 -34 19 -34 1 0 -7 14 -19 31 -27 27 -10 36 -10 58 2 48 27
27 62 -54 93 -6 2 -5 9 2 17 10 10 17 10 38 -1 29 -16 43 -7 25 15 -16 20 -64
19 -84 -1z"/>
</g>
</svg>
