<?xml version="1.0" standalone="no"?>
<!DOCTYPE svg PUBLIC "-//W3C//DTD SVG 20010904//EN"
 "http://www.w3.org/TR/2001/REC-SVG-20010904/DTD/svg10.dtd">
<svg version="1.0" xmlns="http://www.w3.org/2000/svg"
 width="128.000000pt" height="128.000000pt" viewBox="0 0 128.000000 128.000000"
 preserveAspectRatio="xMidYMid meet">

<g transform="translate(0.000000,128.000000) scale(0.100000,-0.100000)"
fill="#000000" stroke="none">
<path d="M0 640 l0 -640 640 0 640 0 0 640 0 640 -640 0 -640 0 0 -640z m682
323 c35 -31 12 -103 -34 -103 -24 0 -58 35 -58 60 0 22 37 60 59 60 8 0 23 -7
33 -17z m460 0 c24 -21 23 -65 -2 -88 -27 -25 -71 -10 -84 28 -8 22 -6 31 14
52 27 29 46 31 72 8z m-662 -136 c0 -2 -53 -120 -118 -262 l-118 -260 -42 -3
c-30 -2 -42 1 -42 10 0 7 23 62 50 122 28 60 50 110 50 112 0 2 -40 4 -90 4
-50 0 -90 3 -89 8 0 4 8 21 18 37 17 29 19 30 110 33 84 3 93 5 100 25 5 12
25 57 45 100 l35 77 46 0 c25 0 45 -1 45 -3z m180 -15 c73 -39 97 -137 48
-204 -34 -49 -65 -58 -198 -58 -66 0 -120 2 -120 4 0 2 7 20 15 40 l15 36 105
0 c96 0 105 2 119 22 35 50 6 94 -70 105 l-51 8 14 33 c11 28 18 32 51 32 20
0 53 -8 72 -18z m280 13 c0 -3 -5 -13 -10 -23 -6 -9 -60 -125 -119 -257 l-109
-240 -41 -3 c-30 -2 -41 1 -41 11 0 11 208 480 226 509 6 9 94 11 94 3z m180
-14 c40 -21 80 -83 80 -124 0 -37 -43 -103 -79 -122 -22 -11 -62 -15 -151 -15
-66 0 -120 2 -120 5 0 3 7 21 14 40 l15 35 99 0 c113 0 135 10 135 59 0 44
-20 60 -81 68 -29 3 -52 8 -52 10 0 2 7 17 15 33 13 25 22 30 53 30 20 0 53
-8 72 -19z"/>
</g>
</svg>
