<?xml version="1.0" standalone="no"?>
<!DOCTYPE svg PUBLIC "-//W3C//DTD SVG 20010904//EN"
 "http://www.w3.org/TR/2001/REC-SVG-20010904/DTD/svg10.dtd">
<svg version="1.0" xmlns="http://www.w3.org/2000/svg"
 width="402.000000pt" height="102.000000pt" viewBox="0 0 402.000000 102.000000"
 preserveAspectRatio="xMidYMid meet">

<g transform="translate(0.000000,102.000000) scale(0.100000,-0.100000)"
fill="#000000" stroke="none">
<path d="M0 510 l0 -510 2010 0 2010 0 0 510 0 510 -2010 0 -2010 0 0 -510z
m1394 305 c64 -37 202 -85 248 -85 53 0 54 -15 3 -50 -54 -37 -148 -74 -233
-90 -34 -7 -62 -16 -62 -20 0 -17 47 -65 104 -108 l61 -45 -75 7 c-102 9 -156
29 -245 87 -153 99 -270 147 -435 175 -107 18 -188 13 -286 -17 -73 -22 -169
-84 -202 -129 -39 -52 -37 -26 3 46 75 133 216 236 385 281 100 27 355 24 480
-5 52 -12 95 -22 97 -22 2 0 3 24 3 53 l0 53 53 -52 c30 -28 75 -64 101 -79z
m1893 56 c57 -27 76 -66 71 -147 -3 -54 -9 -68 -33 -94 -80 -84 -226 -48 -253
62 -20 77 9 151 70 181 44 22 93 21 145 -2z m183 -23 c22 -24 40 -47 40 -53 0
-5 22 15 49 45 42 47 52 53 68 44 30 -19 26 -42 -16 -91 -23 -25 -41 -50 -41
-55 0 -6 18 -30 40 -55 44 -51 50 -77 20 -93 -21 -11 -29 -6 -83 59 l-28 34
-48 -52 c-50 -53 -74 -59 -86 -20 -5 14 7 35 40 74 l47 54 -46 53 c-25 29 -46
56 -46 60 0 10 30 38 41 38 5 0 28 -19 49 -42z m-1415 7 c36 -35 34 -88 -5
-125 l-29 -27 20 -19 c12 -11 27 -31 35 -46 12 -23 12 -29 -2 -42 -8 -9 -19
-16 -23 -16 -14 0 -38 25 -70 73 -42 61 -71 65 -71 7 0 -51 -30 -86 -60 -70
-18 10 -20 21 -20 144 0 73 3 136 7 139 3 4 49 7 100 7 86 0 96 -2 118 -25z
m292 10 c8 -25 -18 -39 -81 -43 -62 -4 -66 -6 -66 -28 0 -23 4 -24 59 -24 61
0 89 -16 77 -45 -4 -11 -22 -15 -71 -15 l-65 0 0 -30 0 -30 64 0 c67 0 92 -13
80 -44 -5 -14 -21 -16 -108 -14 l-101 3 -3 129 c-1 72 0 136 3 143 3 11 29 13
107 11 56 -2 103 -7 105 -13z m251 -5 c86 -53 81 -204 -9 -252 -27 -15 -52
-18 -119 -16 l-85 3 -3 129 c-1 72 0 136 2 143 4 9 30 13 93 13 71 0 95 -4
121 -20z m442 -4 c0 -27 -21 -36 -87 -36 -39 0 -43 -2 -43 -25 0 -24 3 -25 54
-25 35 0 58 -5 66 -15 22 -26 -5 -45 -66 -45 l-54 0 0 -45 c0 -56 -29 -92 -60
-75 -18 10 -20 21 -20 144 0 73 3 136 7 139 3 4 51 7 105 7 97 0 98 0 98 -24z
m-2640 -270 c0 -2 -7 -20 -15 -41 -42 -100 54 -134 245 -87 118 30 204 40 278
34 60 -4 62 -5 60 -31 -1 -14 7 -39 17 -54 17 -27 17 -30 2 -57 -9 -15 -17
-35 -17 -44 0 -9 -12 -18 -27 -22 -16 -3 -53 -12 -83 -19 -200 -49 -458 -58
-547 -21 -127 54 -102 231 47 329 24 16 40 21 40 13z m1500 -75 c5 -11 10 -63
10 -115 l0 -96 39 0 c60 0 93 -16 89 -43 -3 -20 -9 -22 -83 -25 -133 -5 -125
-15 -125 147 0 102 3 141 13 144 26 11 47 6 57 -12z m400 -113 c53 -104 63
-131 54 -145 -18 -30 -43 -27 -62 6 -16 30 -20 31 -84 31 -65 0 -68 -1 -83
-30 -17 -33 -45 -39 -65 -15 -11 13 -4 35 39 128 70 150 76 159 109 155 24 -3
35 -19 92 -130z m289 121 c52 -18 69 -79 32 -113 -18 -17 -18 -18 5 -41 31
-31 31 -66 0 -102 -23 -26 -30 -28 -117 -32 -80 -3 -94 -1 -106 15 -16 22 -18
236 -3 265 9 16 22 19 84 19 40 0 87 -5 105 -11z m302 -5 c22 -11 29 -21 27
-37 -2 -18 -9 -21 -33 -19 -96 10 -120 7 -120 -12 0 -15 13 -24 60 -38 102
-30 129 -87 70 -147 -50 -51 -221 -34 -213 21 2 19 8 22 33 20 92 -10 130 -7
133 10 2 13 -12 21 -66 37 -76 23 -89 33 -98 77 -6 33 23 79 60 94 35 14 115
11 147 -6z m-1721 -114 c73 -49 154 -150 122 -150 -5 0 -33 8 -63 19 -30 10
-92 22 -137 26 -90 8 -98 16 -57 55 l25 23 -25 33 c-24 32 -31 55 -19 67 9 9
88 -28 154 -73z"/>
<path d="M3173 815 c-48 -34 -34 -155 20 -169 39 -9 75 9 83 41 3 15 7 33 9
40 2 6 -1 28 -6 47 -15 53 -62 72 -106 41z"/>
<path d="M1910 795 c0 -34 1 -35 40 -35 29 0 42 5 50 19 14 27 -12 51 -56 51
-32 0 -34 -2 -34 -35z"/>
<path d="M2460 735 l0 -85 34 0 c19 0 45 9 60 21 21 17 26 29 26 65 0 58 -25
84 -80 84 l-40 0 0 -85z"/>
<path d="M2186 400 c-9 -22 -16 -43 -16 -45 0 -3 18 -5 40 -5 l39 0 -18 40
c-25 56 -26 56 -45 10z"/>
<path d="M2470 440 c0 -28 2 -30 39 -30 46 0 70 22 51 45 -7 9 -29 15 -51 15
-37 0 -39 -2 -39 -30z"/>
<path d="M2470 320 c0 -29 2 -30 45 -30 32 0 47 5 53 18 16 30 3 42 -49 42
-48 0 -49 -1 -49 -30z"/>
</g>
</svg>
